<svg width="1440" height="1024" viewBox="0 0 1440 1024" fill="none" xmlns="http://www.w3.org/2000/svg">
<rect width="1440" height="1024" fill="url(#paint0_radial_91_3)"/>
<rect x="534.119" y="210.411" width="400" height="604" rx="15" fill="#383838"/>
<rect x="548.716" y="201.029" width="399.812" height="603.987" rx="15" transform="rotate(2.73126 548.716 201.029)" fill="#383838"/>
<rect x="570.404" y="192.208" width="395.812" height="599.987" rx="13" transform="rotate(6.33428 570.404 192.208)" fill="#1E1E1E" stroke="#FFC671" stroke-width="4"/>
<path d="M741.211 442.356C739.506 443.053 738.369 444.817 738.369 446.786C738.369 448.754 739.506 450.518 741.211 451.215L761.359 459.399C762.16 459.724 762.781 460.379 763.065 461.196L770.652 483.085C771.296 484.93 772.925 486.161 774.744 486.161C776.563 486.161 778.192 484.93 778.837 483.085L786.424 461.196C786.707 460.379 787.328 459.724 788.129 459.399L808.277 451.215C809.982 450.518 811.119 448.754 811.119 446.786C811.119 444.817 809.982 443.053 808.277 442.356L788.129 434.172C787.328 433.847 786.707 433.192 786.424 432.376L778.837 410.487C778.192 408.641 776.563 407.411 774.744 407.411C772.925 407.411 771.296 408.641 770.652 410.487L763.065 432.376C762.781 433.192 762.16 433.847 761.359 434.172L741.211 442.356ZM694.833 437.475C693.848 435.137 691.688 433.661 689.339 433.661C686.99 433.661 684.83 435.137 683.845 437.475L664.271 483.222C663.992 483.875 663.49 484.407 662.855 484.725L620.643 505.848C618.483 506.915 617.119 509.253 617.119 511.837C617.119 514.421 618.483 516.718 620.643 517.784L662.89 538.907C663.527 539.225 664.029 539.759 664.308 540.414L683.807 586.157C684.792 588.495 686.952 589.972 689.301 589.972C691.65 589.972 693.81 588.495 694.795 586.157L714.331 540.372C714.61 539.718 715.112 539.184 715.749 538.866L757.996 517.743C760.156 516.677 761.52 514.338 761.52 511.796C761.52 509.253 760.156 506.915 757.996 505.848L715.787 484.767C715.151 484.449 714.648 483.915 714.368 483.26L694.833 437.475ZM763.065 563.625C762.781 564.442 762.16 565.097 761.359 565.422L741.211 573.607C739.506 574.304 738.369 576.067 738.369 578.036C738.369 580.004 739.506 581.768 741.211 582.466L761.359 590.649C762.16 590.974 762.781 591.629 763.065 592.446L770.652 614.335C771.296 616.181 772.925 617.411 774.744 617.411C776.563 617.411 778.192 616.181 778.837 614.335L786.424 592.446C786.707 591.629 787.328 590.974 788.129 590.649L808.277 582.466C809.982 581.768 811.119 580.004 811.119 578.036C811.119 576.067 809.982 574.304 808.277 573.607L788.129 565.422C787.328 565.097 786.707 564.442 786.424 563.625L778.837 541.737C778.192 539.891 776.563 538.66 774.744 538.66C772.925 538.66 771.296 539.891 770.652 541.737L763.065 563.625Z" fill="#FFC671"/>
<rect x="534.119" y="210.411" width="400" height="604" rx="15" fill="#383838"/>
<rect x="548.716" y="201.029" width="399.812" height="603.987" rx="15" transform="rotate(2.73126 548.716 201.029)" fill="#383838"/>
<rect x="570.404" y="192.208" width="395.812" height="599.987" rx="13" transform="rotate(6.33428 570.404 192.208)" fill="#1E1E1E" stroke="#FFC671" stroke-width="4"/>
<rect x="601.483" y="353.205" width="293.309" height="180.162" rx="27" transform="rotate(5.39839 601.483 353.205)" fill="url(#paint1_linear_91_3)" fill-opacity="0.1"/>
<rect width="293.309" height="41.1353" rx="20.5676" transform="matrix(0.995569 0.0940302 -0.0941305 0.99556 583.622 547.649)" fill="url(#paint2_linear_91_3)" fill-opacity="0.1"/>
<rect x="0.450719" y="0.544795" width="292.309" height="40.1353" rx="20.0676" transform="matrix(0.995569 0.0940302 -0.0941305 0.99556 577.862 603.546)" fill="url(#paint3_linear_91_3)" fill-opacity="0.1" stroke="black"/>
<rect width="293.309" height="41.1353" rx="20.5676" transform="matrix(0.995569 0.0940302 -0.0941305 0.99556 577.809 603.586)" fill="url(#paint4_linear_91_3)" fill-opacity="0.1"/>
<path d="M761.452 448.945C759.756 449.643 758.625 451.406 758.625 453.375C758.625 455.344 759.756 457.107 761.452 457.805L781.491 465.986C782.291 466.313 782.912 466.969 783.193 467.786L790.741 489.674C791.382 491.52 793.003 492.75 794.812 492.75C796.622 492.75 798.243 491.52 798.884 489.674L806.432 467.786C806.713 466.969 807.334 466.313 808.134 465.986L828.173 457.805C829.869 457.107 831 455.344 831 453.375C831 451.406 829.869 449.643 828.173 448.945L808.134 440.764C807.334 440.437 806.713 439.782 806.432 438.965L798.884 417.076C798.243 415.23 796.622 414 794.812 414C793.003 414 791.382 415.23 790.741 417.076L783.193 438.965C782.912 439.782 782.291 440.437 781.491 440.764L761.452 448.945ZM715.313 444.065C714.333 441.727 712.184 440.25 709.847 440.25C707.51 440.25 705.362 441.727 704.381 444.065L684.909 489.811C684.631 490.464 684.13 490.997 683.497 491.316L641.506 512.438C639.357 513.504 638 515.842 638 518.426C638 521.011 639.357 523.307 641.506 524.374L683.531 545.494C684.167 545.814 684.668 546.349 684.946 547.004L704.344 592.747C705.324 595.084 707.472 596.561 709.81 596.561C712.147 596.561 714.295 595.084 715.275 592.747L734.71 546.962C734.988 546.307 735.489 545.773 736.125 545.454L778.151 524.333C780.3 523.266 781.657 520.928 781.657 518.385C781.657 515.842 780.3 513.504 778.151 512.438L736.163 491.358C735.527 491.039 735.026 490.504 734.748 489.849L715.313 444.065ZM783.193 570.214C782.912 571.031 782.291 571.687 781.491 572.014L761.452 580.196C759.756 580.893 758.625 582.656 758.625 584.625C758.625 586.594 759.756 588.358 761.452 589.055L781.491 597.236C782.291 597.563 782.912 598.218 783.193 599.035L790.741 620.925C791.382 622.77 793.003 624 794.812 624C796.622 624 798.243 622.77 798.884 620.925L806.432 599.035C806.713 598.218 807.334 597.563 808.134 597.236L828.173 589.055C829.869 588.358 831 586.594 831 584.625C831 582.656 829.869 580.893 828.173 580.196L808.134 572.014C807.334 571.687 806.713 571.031 806.432 570.214L798.884 548.326C798.243 546.48 796.622 545.25 794.812 545.25C793.003 545.25 791.382 546.48 790.741 548.326L783.193 570.214Z" fill="#FFC671"/>
<defs>
<radialGradient id="paint0_radial_91_3" cx="0" cy="0" r="1" gradientUnits="userSpaceOnUse" gradientTransform="translate(720 512) rotate(90) scale(512 720)">
<stop stop-color="white"/>
<stop offset="1" stop-color="#FFC671"/>
</radialGradient>
<linearGradient id="paint1_linear_91_3" x1="601.483" y1="443.286" x2="894.792" y2="443.286" gradientUnits="userSpaceOnUse">
<stop stop-color="white"/>
<stop offset="1" stop-color="#FFC671"/>
</linearGradient>
<linearGradient id="paint2_linear_91_3" x1="0" y1="20.5676" x2="293.309" y2="20.5676" gradientUnits="userSpaceOnUse">
<stop stop-color="white"/>
<stop offset="1" stop-color="#FFC671"/>
</linearGradient>
<linearGradient id="paint3_linear_91_3" x1="0" y1="20.5676" x2="293.309" y2="20.5676" gradientUnits="userSpaceOnUse">
<stop stop-color="white"/>
<stop offset="1" stop-color="#FFC671"/>
</linearGradient>
<linearGradient id="paint4_linear_91_3" x1="0" y1="20.5676" x2="293.309" y2="20.5676" gradientUnits="userSpaceOnUse">
<stop stop-color="white"/>
<stop offset="1" stop-color="#FFC671"/>
</linearGradient>
</defs>
</svg>
