<svg width="118" height="44" viewBox="0 0 118 44" fill="none" xmlns="http://www.w3.org/2000/svg">
<path d="M25.7027 17.9843H20.1033C20.001 17.2598 19.7922 16.6164 19.4768 16.0539C19.1615 15.4829 18.7567 14.9971 18.2624 14.5965C17.768 14.1959 17.197 13.8891 16.5493 13.676C15.9101 13.463 15.2155 13.3564 14.4655 13.3564C13.1104 13.3564 11.93 13.6931 10.9243 14.3664C9.91859 15.0311 9.13876 16.0027 8.58479 17.2811C8.03081 18.551 7.75382 20.0936 7.75382 21.909C7.75382 23.7755 8.03081 25.3436 8.58479 26.6135C9.14728 27.8834 9.93138 28.8422 10.9371 29.49C11.9427 30.1377 13.1061 30.4615 14.4271 30.4615C15.1686 30.4615 15.8547 30.3635 16.4854 30.1675C17.1246 29.9715 17.6913 29.686 18.1856 29.311C18.68 28.9275 19.0891 28.463 19.4129 27.9175C19.7453 27.3721 19.9754 26.7499 20.1033 26.051L25.7027 26.0766C25.5578 27.2783 25.1956 28.4374 24.616 29.5539C24.045 30.6618 23.2737 31.6547 22.3021 32.5326C21.3391 33.4019 20.1885 34.0922 18.8504 34.6036C17.5209 35.1064 16.0166 35.3579 14.3376 35.3579C12.0024 35.3579 9.91433 34.8294 8.07342 33.7726C6.24103 32.7158 4.79217 31.186 3.72683 29.1831C2.67001 27.1803 2.1416 24.7556 2.1416 21.909C2.1416 19.0539 2.67853 16.6249 3.7524 14.6221C4.82626 12.6192 6.28365 11.0936 8.12456 10.0454C9.96547 8.98859 12.0365 8.46018 14.3376 8.46018C15.8547 8.46018 17.2609 8.67324 18.5564 9.09938C19.8604 9.52552 21.0152 10.1476 22.0209 10.9658C23.0266 11.7755 23.8447 12.7684 24.4754 13.9445C25.1146 15.1206 25.5237 16.4672 25.7027 17.9843ZM33.3693 35.3706C32.1165 35.3706 31 35.1533 30.0199 34.7187C29.0398 34.2755 28.2642 33.6235 27.6932 32.7627C27.1307 31.8934 26.8494 30.811 26.8494 29.5155C26.8494 28.4246 27.0497 27.5084 27.4503 26.7669C27.8508 26.0255 28.3963 25.4289 29.0866 24.9772C29.777 24.5255 30.5611 24.1846 31.4389 23.9544C32.3253 23.7243 33.2543 23.5624 34.2258 23.4687C35.3679 23.3493 36.2883 23.2385 36.9872 23.1363C37.6861 23.0255 38.1932 22.8635 38.5085 22.6505C38.8239 22.4374 38.9815 22.1221 38.9815 21.7044V21.6277C38.9815 20.8181 38.7258 20.1917 38.2145 19.7485C37.7116 19.3053 36.9957 19.0837 36.0668 19.0837C35.0866 19.0837 34.3068 19.301 33.7273 19.7357C33.1477 20.1618 32.7642 20.6988 32.5767 21.3465L27.5398 20.9374C27.7954 19.7442 28.2983 18.713 29.0483 17.8437C29.7983 16.9658 30.7656 16.2925 31.9503 15.8238C33.1435 15.3465 34.5241 15.1079 36.0923 15.1079C37.1832 15.1079 38.2273 15.2357 39.2244 15.4914C40.2301 15.7471 41.1207 16.1434 41.8963 16.6803C42.6804 17.2172 43.2983 17.9076 43.75 18.7513C44.2017 19.5865 44.4276 20.588 44.4276 21.7556V34.9999H39.2628V32.2769H39.1094C38.794 32.8905 38.3722 33.4317 37.8437 33.9005C37.3153 34.3607 36.6804 34.7229 35.9389 34.9871C35.1974 35.2428 34.3409 35.3706 33.3693 35.3706ZM34.929 31.6121C35.7301 31.6121 36.4375 31.4544 37.0511 31.1391C37.6648 30.8152 38.1463 30.3806 38.4957 29.8351C38.8452 29.2897 39.0199 28.6718 39.0199 27.9814V25.8976C38.8494 26.0084 38.6151 26.1107 38.3168 26.2044C38.027 26.2897 37.6989 26.3706 37.3324 26.4473C36.9659 26.5155 36.5994 26.5794 36.2329 26.6391C35.8665 26.6902 35.5341 26.7371 35.2358 26.7797C34.5966 26.8735 34.0383 27.0226 33.5611 27.2272C33.0838 27.4317 32.7131 27.7087 32.4489 28.0581C32.1847 28.399 32.0526 28.8252 32.0526 29.3365C32.0526 30.078 32.321 30.6448 32.8579 31.0368C33.4034 31.4204 34.0937 31.6121 34.929 31.6121ZM46.8527 34.9999V15.3635H52.1325V18.7897H52.3371C52.695 17.5709 53.2959 16.6505 54.1396 16.0283C54.9834 15.3976 55.955 15.0823 57.0544 15.0823C57.3271 15.0823 57.6212 15.0993 57.9365 15.1334C58.2518 15.1675 58.5288 15.2144 58.7675 15.274V20.1064C58.5118 20.0297 58.1581 19.9615 57.7064 19.9019C57.2547 19.8422 56.8413 19.8124 56.4663 19.8124C55.6652 19.8124 54.9493 19.9871 54.3186 20.3365C53.6964 20.6775 53.2021 21.1547 52.8356 21.7684C52.4777 22.382 52.2987 23.0894 52.2987 23.8905V34.9999H46.8527ZM66.1049 35.3195C64.6134 35.3195 63.2626 34.936 62.0523 34.1689C60.8506 33.3934 59.8961 32.2556 59.1887 30.7556C58.4898 29.2471 58.1404 27.3976 58.1404 25.2073C58.1404 22.9573 58.5026 21.0865 59.2271 19.5951C59.9515 18.0951 60.9146 16.9743 62.1163 16.2329C63.3265 15.4829 64.6518 15.1079 66.0921 15.1079C67.1915 15.1079 68.1077 15.2954 68.8407 15.6704C69.5822 16.0368 70.1788 16.4971 70.6305 17.051C71.0907 17.5965 71.4401 18.1334 71.6788 18.6618H71.845V8.81813H77.2782V34.9999H71.9089V31.855H71.6788C71.4231 32.4005 71.0609 32.9417 70.5921 33.4786C70.1319 34.007 69.531 34.4459 68.7896 34.7954C68.0566 35.1448 67.1617 35.3195 66.1049 35.3195ZM67.8307 30.9857C68.7086 30.9857 69.4501 30.7471 70.0552 30.2698C70.6688 29.784 71.1376 29.1064 71.4614 28.2371C71.7938 27.3678 71.96 26.3493 71.96 25.1817C71.96 24.0141 71.7981 22.9999 71.4742 22.1391C71.1503 21.2783 70.6816 20.6135 70.068 20.1448C69.4543 19.676 68.7086 19.4417 67.8307 19.4417C66.9359 19.4417 66.1816 19.6846 65.568 20.1704C64.9543 20.6561 64.4898 21.3294 64.1745 22.1902C63.8592 23.051 63.7015 24.0482 63.7015 25.1817C63.7015 26.3238 63.8592 27.3337 64.1745 28.2115C64.4984 29.0809 64.9628 29.7627 65.568 30.257C66.1816 30.7428 66.9359 30.9857 67.8307 30.9857ZM79.9558 34.9999V15.3635H85.4018V34.9999H79.9558ZM82.6916 12.8323C81.882 12.8323 81.1874 12.5638 80.6078 12.0269C80.0368 11.4814 79.7513 10.8294 79.7513 10.0709C79.7513 9.32097 80.0368 8.67751 80.6078 8.14057C81.1874 7.59512 81.882 7.32239 82.6916 7.32239C83.5013 7.32239 84.1916 7.59512 84.7626 8.14057C85.3422 8.67751 85.632 9.32097 85.632 10.0709C85.632 10.8294 85.3422 11.4814 84.7626 12.0269C84.1916 12.5638 83.5013 12.8323 82.6916 12.8323ZM93.5638 35.3706C92.311 35.3706 91.1945 35.1533 90.2144 34.7187C89.2343 34.2755 88.4587 33.6235 87.8877 32.7627C87.3252 31.8934 87.044 30.811 87.044 29.5155C87.044 28.4246 87.2442 27.5084 87.6448 26.7669C88.0454 26.0255 88.5908 25.4289 89.2812 24.9772C89.9715 24.5255 90.7556 24.1846 91.6334 23.9544C92.5198 23.7243 93.4488 23.5624 94.4204 23.4687C95.5624 23.3493 96.4829 23.2385 97.1817 23.1363C97.8806 23.0255 98.3877 22.8635 98.703 22.6505C99.0184 22.4374 99.1761 22.1221 99.1761 21.7044V21.6277C99.1761 20.8181 98.9204 20.1917 98.409 19.7485C97.9062 19.3053 97.1903 19.0837 96.2613 19.0837C95.2812 19.0837 94.5013 19.301 93.9218 19.7357C93.3423 20.1618 92.9587 20.6988 92.7712 21.3465L87.7343 20.9374C87.99 19.7442 88.4928 18.713 89.2428 17.8437C89.9928 16.9658 90.9601 16.2925 92.1448 15.8238C93.338 15.3465 94.7187 15.1079 96.2869 15.1079C97.3778 15.1079 98.4218 15.2357 99.419 15.4914C100.425 15.7471 101.315 16.1434 102.091 16.6803C102.875 17.2172 103.493 17.9076 103.944 18.7513C104.396 19.5865 104.622 20.588 104.622 21.7556V34.9999H99.4573V32.2769H99.3039C98.9886 32.8905 98.5667 33.4317 98.0383 33.9005C97.5099 34.3607 96.8749 34.7229 96.1334 34.9871C95.392 35.2428 94.5354 35.3706 93.5638 35.3706ZM95.1235 31.6121C95.9246 31.6121 96.632 31.4544 97.2457 31.1391C97.8593 30.8152 98.3408 30.3806 98.6903 29.8351C99.0397 29.2897 99.2144 28.6718 99.2144 27.9814V25.8976C99.044 26.0084 98.8096 26.1107 98.5113 26.2044C98.2215 26.2897 97.8934 26.3706 97.5269 26.4473C97.1604 26.5155 96.794 26.5794 96.4275 26.6391C96.061 26.6902 95.7286 26.7371 95.4303 26.7797C94.7911 26.8735 94.2329 27.0226 93.7556 27.2272C93.2783 27.4317 92.9076 27.7087 92.6434 28.0581C92.3792 28.399 92.2471 28.8252 92.2471 29.3365C92.2471 30.078 92.5155 30.6448 93.0525 31.0368C93.5979 31.4204 94.2883 31.6121 95.1235 31.6121Z" fill="#1E1E1E"/>
<path d="M114.232 9.51205L109.318 7.10913C108.737 6.8249 108.047 6.88467 107.523 7.26454C106.457 8.03781 106.595 9.66739 107.776 10.2497L111.332 12.0022C112.503 12.5796 113.287 13.7272 113.399 15.0282L113.725 18.8045C113.834 20.0715 115.293 20.7258 116.312 19.9649C116.761 19.6292 117.006 19.0848 116.957 18.5257L116.46 12.7616C116.339 11.3624 115.494 10.129 114.232 9.51205Z" fill="#FFF1DB" stroke="#1E1E1E"/>
<path d="M108.125 13.9335L105.072 12.7037C104.732 12.5664 104.346 12.5998 104.034 12.7936C103.234 13.2904 103.335 14.4853 104.208 14.8399L106.7 15.8524C107.557 16.2006 108.147 16.9999 108.226 17.9216L108.403 19.9716C108.482 20.8826 109.499 21.3846 110.27 20.8924C110.651 20.6488 110.866 20.2135 110.827 19.7625L110.615 17.2999C110.485 15.7982 109.523 14.4969 108.125 13.9335Z" fill="#FFF1DB" stroke="#1E1E1E"/>
</svg>
