<svg width="1440" height="1024" viewBox="0 0 1440 1024" fill="none" xmlns="http://www.w3.org/2000/svg">
<rect width="1440" height="1024" fill="url(#paint0_radial_88_4)"/>
<rect x="449" y="190" width="542" height="565.888" rx="13" fill="#1E1E1E" stroke="#FFC671" stroke-width="4"/>
<rect x="479.419" y="222.978" width="480.309" height="295.181" rx="27" fill="url(#paint1_linear_88_4)"/>
<rect x="479.419" y="222.978" width="480.309" height="295.181" rx="27" fill="url(#paint2_linear_88_4)"/>
<rect x="480.272" y="542.9" width="480.309" height="67.3969" rx="27" fill="url(#paint3_linear_88_4)"/>
<rect x="480.272" y="542.9" width="480.309" height="67.3969" rx="27" fill="url(#paint4_linear_88_4)"/>
<rect x="479.419" y="635.038" width="480.309" height="67.3969" rx="27" fill="url(#paint5_linear_88_4)"/>
<rect x="479.419" y="635.038" width="480.309" height="67.3969" rx="27" fill="url(#paint6_linear_88_4)"/>
<rect x="535.872" y="374.128" width="52.1279" height="35.5375" rx="9" fill="#1E1E1E" stroke="#FFC671" stroke-width="2"/>
<path d="M550.919 384.645H553.34L558.181 392.793H558.385L563.226 384.645H565.647L559.34 394.906V402.1H557.226V394.906L550.919 384.645ZM566.668 402.1V389.009H568.679V402.1H566.668ZM567.69 386.827C567.298 386.827 566.96 386.693 566.676 386.426C566.398 386.159 566.258 385.838 566.258 385.463C566.258 385.088 566.398 384.767 566.676 384.5C566.96 384.233 567.298 384.1 567.69 384.1C568.082 384.1 568.418 384.233 568.696 384.5C568.98 384.767 569.122 385.088 569.122 385.463C569.122 385.838 568.98 386.159 568.696 386.426C568.418 386.693 568.082 386.827 567.69 386.827Z" fill="#FFC671"/>
<path d="M604.766 359.213C604.88 359.317 604.957 359.45 604.987 359.595C605.016 359.74 604.997 359.89 604.931 360.024L595.865 378.567C595.801 378.697 595.698 378.807 595.567 378.884C595.435 378.961 595.282 379.001 595.126 379C594.97 378.999 594.818 378.956 594.688 378.878C594.558 378.799 594.456 378.688 594.395 378.557L591.124 371.614L583.485 368.639C583.342 368.583 583.22 368.49 583.133 368.372C583.047 368.254 583.001 368.116 583 367.974C582.999 367.833 583.043 367.694 583.128 367.575C583.212 367.456 583.333 367.362 583.475 367.304L603.873 359.063C604.021 359.003 604.185 358.985 604.344 359.012C604.503 359.039 604.651 359.109 604.766 359.213Z" fill="#1E1E1E" stroke="#FFC671"/>
<rect x="839" y="565" width="74" height="36" rx="9" fill="#1E1E1E" stroke="white" stroke-width="2"/>
<path d="M869.295 575.455V590H867.591L859.665 578.58H859.523V590H857.761V575.455H859.466L867.42 586.903H867.562V575.455H869.295ZM874.603 590.256C873.912 590.256 873.284 590.125 872.721 589.865C872.157 589.6 871.71 589.219 871.378 588.722C871.047 588.22 870.881 587.614 870.881 586.903C870.881 586.278 871.004 585.772 871.251 585.384C871.497 584.991 871.826 584.683 872.238 584.46C872.65 584.238 873.104 584.072 873.601 583.963C874.103 583.849 874.608 583.759 875.114 583.693C875.777 583.608 876.315 583.544 876.726 583.501C877.143 583.454 877.446 583.376 877.636 583.267C877.83 583.158 877.927 582.969 877.927 582.699V582.642C877.927 581.941 877.735 581.397 877.351 581.009C876.973 580.62 876.397 580.426 875.626 580.426C874.825 580.426 874.198 580.601 873.744 580.952C873.289 581.302 872.969 581.676 872.785 582.074L871.194 581.506C871.478 580.843 871.857 580.327 872.33 579.957C872.808 579.583 873.329 579.323 873.893 579.176C874.461 579.025 875.02 578.949 875.569 578.949C875.919 578.949 876.322 578.991 876.776 579.077C877.235 579.157 877.678 579.325 878.104 579.581C878.535 579.837 878.893 580.223 879.177 580.739C879.461 581.255 879.603 581.946 879.603 582.812V590H877.927V588.523H877.842C877.728 588.759 877.539 589.013 877.273 589.283C877.008 589.553 876.655 589.782 876.215 589.972C875.775 590.161 875.237 590.256 874.603 590.256ZM874.859 588.75C875.521 588.75 876.08 588.62 876.535 588.359C876.994 588.099 877.34 587.763 877.572 587.351C877.808 586.939 877.927 586.506 877.927 586.051V584.517C877.856 584.602 877.7 584.68 877.458 584.751C877.221 584.818 876.947 584.877 876.634 584.929C876.326 584.976 876.026 585.019 875.732 585.057C875.443 585.09 875.209 585.118 875.029 585.142C874.593 585.199 874.186 585.291 873.807 585.419C873.433 585.542 873.13 585.729 872.898 585.98C872.671 586.226 872.557 586.562 872.557 586.989C872.557 587.571 872.773 588.011 873.204 588.31C873.639 588.603 874.191 588.75 874.859 588.75ZM886.207 579.091V580.511H880.553V579.091H886.207ZM882.201 576.477H883.877V586.875C883.877 587.348 883.946 587.704 884.083 587.94C884.225 588.172 884.405 588.329 884.623 588.409C884.845 588.485 885.08 588.523 885.326 588.523C885.511 588.523 885.662 588.513 885.78 588.494C885.899 588.471 885.993 588.452 886.064 588.438L886.405 589.943C886.292 589.986 886.133 590.028 885.93 590.071C885.726 590.118 885.468 590.142 885.155 590.142C884.682 590.142 884.218 590.04 883.763 589.837C883.314 589.633 882.939 589.323 882.641 588.906C882.348 588.49 882.201 587.964 882.201 587.33V576.477ZM891.985 590.227C890.933 590.227 890.027 589.995 889.264 589.531C888.507 589.062 887.922 588.409 887.51 587.571C887.103 586.728 886.899 585.748 886.899 584.631C886.899 583.513 887.103 582.528 887.51 581.676C887.922 580.819 888.495 580.152 889.229 579.673C889.967 579.19 890.829 578.949 891.814 578.949C892.382 578.949 892.943 579.044 893.497 579.233C894.051 579.422 894.556 579.73 895.01 580.156C895.465 580.578 895.827 581.136 896.097 581.832C896.367 582.528 896.502 583.385 896.502 584.403V585.114H888.092V583.665H894.797C894.797 583.049 894.674 582.5 894.428 582.017C894.186 581.534 893.841 581.153 893.391 580.874C892.946 580.594 892.42 580.455 891.814 580.455C891.146 580.455 890.569 580.62 890.081 580.952C889.598 581.278 889.226 581.705 888.966 582.23C888.706 582.756 888.575 583.319 888.575 583.92V584.886C888.575 585.71 888.717 586.409 889.002 586.982C889.29 587.55 889.69 587.983 890.202 588.281C890.713 588.575 891.307 588.722 891.985 588.722C892.425 588.722 892.823 588.66 893.178 588.537C893.538 588.409 893.848 588.22 894.108 587.969C894.369 587.713 894.57 587.396 894.712 587.017L896.331 587.472C896.161 588.021 895.874 588.504 895.472 588.92C895.069 589.332 894.572 589.654 893.98 589.886C893.388 590.114 892.723 590.227 891.985 590.227Z" fill="#FFC671"/>
<path d="M825.181 551.181C825.093 551.269 825.033 551.383 825.01 551.506C824.988 551.629 825.003 551.756 825.054 551.871L832.059 567.632C832.108 567.742 832.188 567.836 832.289 567.901C832.391 567.967 832.509 568.001 832.63 568C832.75 567.999 832.868 567.963 832.968 567.896C833.069 567.829 833.147 567.734 833.195 567.623L835.722 561.722L841.625 559.193C841.736 559.145 841.83 559.067 841.897 558.966C841.963 558.866 841.999 558.748 842 558.628C842.001 558.508 841.966 558.39 841.901 558.289C841.836 558.187 841.743 558.108 841.633 558.059L825.871 551.053C825.757 551.003 825.63 550.988 825.507 551.01C825.384 551.033 825.27 551.093 825.181 551.181Z" fill="#1E1E1E" stroke="white" stroke-width="2"/>
<path d="M636.239 819H633.068C632.881 818.088 632.553 817.287 632.084 816.597C631.624 815.906 631.061 815.327 630.396 814.858C629.74 814.381 629.011 814.023 628.21 813.784C627.409 813.545 626.574 813.426 625.705 813.426C624.119 813.426 622.683 813.827 621.396 814.628C620.118 815.429 619.099 816.609 618.341 818.169C617.591 819.729 617.216 821.642 617.216 823.909C617.216 826.176 617.591 828.089 618.341 829.649C619.099 831.209 620.118 832.389 621.396 833.19C622.683 833.991 624.119 834.392 625.705 834.392C626.574 834.392 627.409 834.273 628.21 834.034C629.011 833.795 629.74 833.442 630.396 832.973C631.061 832.496 631.624 831.912 632.084 831.222C632.553 830.523 632.881 829.722 633.068 828.818H636.239C636 830.156 635.565 831.354 634.935 832.411C634.304 833.467 633.52 834.366 632.582 835.108C631.645 835.841 630.592 836.399 629.425 836.783C628.266 837.166 627.026 837.358 625.705 837.358C623.472 837.358 621.486 836.812 619.747 835.722C618.009 834.631 616.641 833.08 615.643 831.068C614.646 829.057 614.148 826.67 614.148 823.909C614.148 821.148 614.646 818.761 615.643 816.75C616.641 814.739 618.009 813.188 619.747 812.097C621.486 811.006 623.472 810.46 625.705 810.46C627.026 810.46 628.266 810.652 629.425 811.036C630.592 811.419 631.645 811.982 632.582 812.723C633.52 813.456 634.304 814.351 634.935 815.408C635.565 816.456 636 817.653 636.239 819ZM647.85 837.409C646.077 837.409 644.522 836.987 643.184 836.143C641.854 835.3 640.815 834.119 640.065 832.602C639.323 831.085 638.952 829.312 638.952 827.284C638.952 825.239 639.323 823.453 640.065 821.928C640.815 820.402 641.854 819.217 643.184 818.374C644.522 817.53 646.077 817.108 647.85 817.108C649.623 817.108 651.174 817.53 652.503 818.374C653.842 819.217 654.881 820.402 655.623 821.928C656.373 823.453 656.748 825.239 656.748 827.284C656.748 829.312 656.373 831.085 655.623 832.602C654.881 834.119 653.842 835.3 652.503 836.143C651.174 836.987 649.623 837.409 647.85 837.409ZM647.85 834.699C649.197 834.699 650.305 834.354 651.174 833.663C652.043 832.973 652.687 832.065 653.104 830.94C653.522 829.815 653.731 828.597 653.731 827.284C653.731 825.972 653.522 824.749 653.104 823.615C652.687 822.482 652.043 821.565 651.174 820.866C650.305 820.168 649.197 819.818 647.85 819.818C646.503 819.818 645.395 820.168 644.526 820.866C643.657 821.565 643.013 822.482 642.596 823.615C642.178 824.749 641.969 825.972 641.969 827.284C641.969 828.597 642.178 829.815 642.596 830.94C643.013 832.065 643.657 832.973 644.526 833.663C645.395 834.354 646.503 834.699 647.85 834.699ZM660.273 837V817.364H663.188V820.432H663.444C663.853 819.384 664.513 818.57 665.425 817.99C666.337 817.402 667.432 817.108 668.711 817.108C670.006 817.108 671.084 817.402 671.945 817.99C672.814 818.57 673.492 819.384 673.978 820.432H674.182C674.685 819.418 675.439 818.612 676.445 818.016C677.451 817.411 678.657 817.108 680.063 817.108C681.819 817.108 683.255 817.658 684.371 818.757C685.488 819.848 686.046 821.548 686.046 823.858V837H683.029V823.858C683.029 822.409 682.633 821.374 681.84 820.751C681.047 820.129 680.114 819.818 679.04 819.818C677.66 819.818 676.59 820.236 675.831 821.071C675.073 821.898 674.694 822.946 674.694 824.216V837H671.626V823.551C671.626 822.435 671.263 821.536 670.539 820.854C669.814 820.163 668.881 819.818 667.739 819.818C666.955 819.818 666.222 820.027 665.54 820.445C664.867 820.862 664.322 821.442 663.904 822.183C663.495 822.916 663.29 823.764 663.29 824.727V837H660.273ZM690.482 837V817.364H693.499V837H690.482ZM692.016 814.091C691.428 814.091 690.921 813.891 690.495 813.49C690.077 813.089 689.869 812.608 689.869 812.045C689.869 811.483 690.077 811.001 690.495 810.601C690.921 810.2 691.428 810 692.016 810C692.604 810 693.107 810.2 693.525 810.601C693.951 811.001 694.164 811.483 694.164 812.045C694.164 812.608 693.951 813.089 693.525 813.49C693.107 813.891 692.604 814.091 692.016 814.091ZM700.962 825.188V837H697.945V817.364H700.86V820.432H701.116C701.576 819.435 702.275 818.634 703.212 818.028C704.15 817.415 705.36 817.108 706.843 817.108C708.173 817.108 709.336 817.381 710.333 817.926C711.33 818.463 712.106 819.281 712.66 820.381C713.214 821.472 713.491 822.852 713.491 824.523V837H710.474V824.727C710.474 823.185 710.073 821.983 709.272 821.122C708.471 820.253 707.371 819.818 705.974 819.818C705.011 819.818 704.15 820.027 703.391 820.445C702.641 820.862 702.049 821.472 701.614 822.273C701.18 823.074 700.962 824.045 700.962 825.188ZM725.85 844.773C724.393 844.773 723.14 844.585 722.091 844.21C721.043 843.844 720.17 843.358 719.471 842.753C718.78 842.156 718.231 841.517 717.822 840.835L720.225 839.148C720.498 839.506 720.843 839.915 721.261 840.375C721.678 840.844 722.249 841.249 722.974 841.589C723.707 841.939 724.665 842.114 725.85 842.114C727.435 842.114 728.743 841.73 729.775 840.963C730.806 840.196 731.322 838.994 731.322 837.358V833.369H731.066C730.844 833.727 730.529 834.17 730.12 834.699C729.719 835.219 729.14 835.683 728.381 836.092C727.631 836.493 726.617 836.693 725.339 836.693C723.753 836.693 722.33 836.318 721.069 835.568C719.816 834.818 718.823 833.727 718.09 832.295C717.366 830.864 717.003 829.125 717.003 827.08C717.003 825.068 717.357 823.317 718.064 821.825C718.772 820.325 719.756 819.166 721.018 818.348C722.279 817.521 723.736 817.108 725.39 817.108C726.668 817.108 727.682 817.321 728.432 817.747C729.191 818.165 729.77 818.642 730.171 819.179C730.58 819.707 730.895 820.142 731.117 820.483H731.424V817.364H734.339V837.562C734.339 839.25 733.955 840.622 733.188 841.679C732.43 842.744 731.407 843.524 730.12 844.018C728.841 844.521 727.418 844.773 725.85 844.773ZM725.748 833.983C726.958 833.983 727.981 833.706 728.816 833.152C729.651 832.598 730.286 831.801 730.721 830.761C731.155 829.722 731.373 828.477 731.373 827.028C731.373 825.614 731.16 824.365 730.734 823.283C730.307 822.2 729.677 821.352 728.841 820.739C728.006 820.125 726.975 819.818 725.748 819.818C724.469 819.818 723.404 820.142 722.552 820.79C721.708 821.437 721.073 822.307 720.647 823.398C720.229 824.489 720.02 825.699 720.02 827.028C720.02 828.392 720.234 829.598 720.66 830.646C721.094 831.686 721.734 832.504 722.577 833.101C723.43 833.689 724.486 833.983 725.748 833.983ZM762.554 817.364C762.4 816.068 761.778 815.062 760.687 814.347C759.596 813.631 758.258 813.273 756.673 813.273C755.514 813.273 754.5 813.46 753.63 813.835C752.77 814.21 752.096 814.726 751.61 815.382C751.133 816.038 750.895 816.784 750.895 817.619C750.895 818.318 751.061 818.919 751.393 819.422C751.734 819.916 752.169 820.33 752.697 820.662C753.226 820.986 753.779 821.254 754.359 821.467C754.939 821.672 755.471 821.838 755.957 821.966L758.616 822.682C759.298 822.861 760.056 823.108 760.892 823.423C761.735 823.739 762.541 824.169 763.308 824.714C764.083 825.251 764.723 825.942 765.226 826.786C765.728 827.629 765.98 828.665 765.98 829.892C765.98 831.307 765.609 832.585 764.868 833.727C764.135 834.869 763.061 835.777 761.646 836.45C760.24 837.124 758.531 837.46 756.52 837.46C754.645 837.46 753.021 837.158 751.649 836.553C750.285 835.947 749.211 835.104 748.427 834.021C747.652 832.939 747.213 831.682 747.11 830.25H750.383C750.468 831.239 750.801 832.057 751.38 832.705C751.968 833.344 752.71 833.821 753.605 834.136C754.508 834.443 755.48 834.597 756.52 834.597C757.73 834.597 758.816 834.401 759.779 834.009C760.743 833.608 761.505 833.054 762.068 832.347C762.63 831.631 762.912 830.795 762.912 829.841C762.912 828.972 762.669 828.264 762.183 827.719C761.697 827.173 761.058 826.73 760.265 826.389C759.473 826.048 758.616 825.75 757.696 825.494L754.474 824.574C752.429 823.986 750.809 823.146 749.616 822.055C748.423 820.964 747.826 819.537 747.826 817.773C747.826 816.307 748.223 815.028 749.015 813.938C749.816 812.838 750.89 811.986 752.237 811.381C753.592 810.767 755.105 810.46 756.775 810.46C758.463 810.46 759.963 810.763 761.275 811.368C762.588 811.964 763.628 812.783 764.395 813.822C765.17 814.862 765.579 816.043 765.622 817.364H762.554ZM777.681 837.409C775.908 837.409 774.353 836.987 773.014 836.143C771.685 835.3 770.645 834.119 769.895 832.602C769.154 831.085 768.783 829.312 768.783 827.284C768.783 825.239 769.154 823.453 769.895 821.928C770.645 820.402 771.685 819.217 773.014 818.374C774.353 817.53 775.908 817.108 777.681 817.108C779.453 817.108 781.005 817.53 782.334 818.374C783.672 819.217 784.712 820.402 785.453 821.928C786.203 823.453 786.578 825.239 786.578 827.284C786.578 829.312 786.203 831.085 785.453 832.602C784.712 834.119 783.672 835.3 782.334 836.143C781.005 836.987 779.453 837.409 777.681 837.409ZM777.681 834.699C779.027 834.699 780.135 834.354 781.005 833.663C781.874 832.973 782.517 832.065 782.935 830.94C783.353 829.815 783.561 828.597 783.561 827.284C783.561 825.972 783.353 824.749 782.935 823.615C782.517 822.482 781.874 821.565 781.005 820.866C780.135 820.168 779.027 819.818 777.681 819.818C776.334 819.818 775.226 820.168 774.357 820.866C773.487 821.565 772.844 822.482 772.426 823.615C772.009 824.749 771.8 825.972 771.8 827.284C771.8 828.597 772.009 829.815 772.426 830.94C772.844 832.065 773.487 832.973 774.357 833.663C775.226 834.354 776.334 834.699 777.681 834.699ZM798.081 837.409C796.308 837.409 794.753 836.987 793.415 836.143C792.085 835.3 791.046 834.119 790.296 832.602C789.554 831.085 789.183 829.312 789.183 827.284C789.183 825.239 789.554 823.453 790.296 821.928C791.046 820.402 792.085 819.217 793.415 818.374C794.753 817.53 796.308 817.108 798.081 817.108C799.854 817.108 801.405 817.53 802.735 818.374C804.073 819.217 805.112 820.402 805.854 821.928C806.604 823.453 806.979 825.239 806.979 827.284C806.979 829.312 806.604 831.085 805.854 832.602C805.112 834.119 804.073 835.3 802.735 836.143C801.405 836.987 799.854 837.409 798.081 837.409ZM798.081 834.699C799.428 834.699 800.536 834.354 801.405 833.663C802.274 832.973 802.918 832.065 803.335 830.94C803.753 829.815 803.962 828.597 803.962 827.284C803.962 825.972 803.753 824.749 803.335 823.615C802.918 822.482 802.274 821.565 801.405 820.866C800.536 820.168 799.428 819.818 798.081 819.818C796.735 819.818 795.627 820.168 794.757 820.866C793.888 821.565 793.244 822.482 792.827 823.615C792.409 824.749 792.2 825.972 792.2 827.284C792.2 828.597 792.409 829.815 792.827 830.94C793.244 832.065 793.888 832.973 794.757 833.663C795.627 834.354 796.735 834.699 798.081 834.699ZM813.521 825.188V837H810.504V817.364H813.419V820.432H813.675C814.135 819.435 814.834 818.634 815.771 818.028C816.709 817.415 817.919 817.108 819.402 817.108C820.732 817.108 821.895 817.381 822.892 817.926C823.889 818.463 824.665 819.281 825.219 820.381C825.773 821.472 826.05 822.852 826.05 824.523V837H823.033V824.727C823.033 823.185 822.632 821.983 821.831 821.122C821.03 820.253 819.93 819.818 818.533 819.818C817.57 819.818 816.709 820.027 815.95 820.445C815.2 820.862 814.608 821.472 814.173 822.273C813.739 823.074 813.521 824.045 813.521 825.188Z" fill="#111111" fill-opacity="0.48"/>
<defs>
<radialGradient id="paint0_radial_88_4" cx="0" cy="0" r="1" gradientUnits="userSpaceOnUse" gradientTransform="translate(720 512) rotate(90) scale(512 720)">
<stop stop-color="white"/>
<stop offset="1" stop-color="#FFC671"/>
</radialGradient>
<linearGradient id="paint1_linear_88_4" x1="479.419" y1="370.569" x2="959.728" y2="370.569" gradientUnits="userSpaceOnUse">
<stop stop-color="white"/>
<stop offset="1" stop-color="#FFC671"/>
</linearGradient>
<linearGradient id="paint2_linear_88_4" x1="479.419" y1="370.569" x2="959.728" y2="370.569" gradientUnits="userSpaceOnUse">
<stop stop-color="white"/>
<stop offset="1" stop-color="#FFC671"/>
</linearGradient>
<linearGradient id="paint3_linear_88_4" x1="480.272" y1="576.598" x2="960.581" y2="576.598" gradientUnits="userSpaceOnUse">
<stop stop-color="white"/>
<stop offset="1" stop-color="#FFC671"/>
</linearGradient>
<linearGradient id="paint4_linear_88_4" x1="480.272" y1="576.598" x2="960.581" y2="576.598" gradientUnits="userSpaceOnUse">
<stop stop-color="white"/>
<stop offset="1" stop-color="#FFC671"/>
</linearGradient>
<linearGradient id="paint5_linear_88_4" x1="479.419" y1="668.736" x2="959.728" y2="668.736" gradientUnits="userSpaceOnUse">
<stop stop-color="white"/>
<stop offset="1" stop-color="#FFC671"/>
</linearGradient>
<linearGradient id="paint6_linear_88_4" x1="479.419" y1="668.736" x2="959.728" y2="668.736" gradientUnits="userSpaceOnUse">
<stop stop-color="white"/>
<stop offset="1" stop-color="#FFC671"/>
</linearGradient>
</defs>
</svg>
