<svg width="1440" height="1024" viewBox="0 0 1440 1024" fill="none" xmlns="http://www.w3.org/2000/svg">
<rect width="1440" height="1024" fill="url(#paint0_radial_92_80)"/>
<path d="M427.423 419.388H482.623C522.523 419.388 532.723 442.888 532.723 461.988C532.723 481.088 522.423 504.588 482.623 504.588H448.523V571.788H427.423V419.388ZM448.623 486.588H476.523C493.323 486.588 510.023 482.788 510.023 462.088C510.023 441.388 493.223 437.588 476.523 437.588H448.623V486.588Z" fill="#111111"/>
<path d="M560.423 418.688C568.423 418.688 574.923 424.987 575.023 432.687C575.123 440.487 568.823 446.887 560.823 447.087C552.823 447.287 546.223 441.188 545.923 433.388C545.823 429.488 547.323 425.787 550.023 422.987C552.623 420.287 556.423 418.688 560.423 418.688ZM550.623 469.788H570.223V571.887H550.623V469.788Z" fill="#111111"/>
<path d="M593.023 469.787H612.923V485.587H613.423C620.323 473.587 633.723 466.387 647.823 467.287C668.123 467.287 685.623 479.187 685.623 506.287V571.987H666.023V511.787C666.023 492.587 654.723 485.487 642.123 485.487C625.623 485.487 613.023 495.787 613.023 519.487V571.987H593.023V469.787Z" fill="#111111"/>
<path d="M721.923 527.988C721.923 545.788 738.923 557.488 757.223 557.488C768.723 557.188 779.423 551.488 785.923 542.288L801.023 553.488C790.023 567.588 772.623 575.488 754.523 574.588C721.323 574.588 700.723 551.388 700.723 520.988C700.123 506.788 705.623 492.988 715.823 482.888C726.023 472.788 740.023 467.188 754.623 467.388C791.523 467.388 805.623 494.888 805.623 521.188V528.088H721.923V527.988ZM784.723 512.488C784.223 495.488 774.523 482.988 754.523 482.988C737.423 482.888 723.123 495.788 722.023 512.488H784.723Z" fill="#111111"/>
<path d="M895.623 496.988C889.123 489.488 879.623 485.288 869.523 485.588C847.923 485.588 836.823 502.588 836.823 521.788C836.323 530.888 839.623 539.688 846.023 546.288C852.423 552.888 861.323 556.588 870.623 556.488C880.423 556.788 889.823 552.588 896.023 545.088L910.123 558.688C899.823 569.288 885.323 574.988 870.423 574.388C855.723 575.088 841.423 569.788 831.023 559.588C820.623 549.488 815.023 535.488 815.723 521.188C815.023 506.788 820.623 492.788 831.023 482.588C841.423 472.388 855.723 466.888 870.523 467.388C885.623 466.988 900.223 472.888 910.723 483.488L895.623 496.988Z" fill="#111111"/>
<path d="M968.923 467.188C999.123 467.688 1023.32 491.888 1023.02 521.388C1022.72 550.888 998.023 574.588 967.723 574.388C937.523 574.188 913.023 550.288 913.023 520.788C913.023 506.388 918.923 492.688 929.423 482.588C940.023 472.488 954.223 466.988 968.923 467.188ZM968.923 556.388C990.023 556.388 1003.32 541.688 1003.32 520.788C1003.32 499.988 990.023 485.288 968.923 485.288C947.823 485.288 934.423 499.988 934.423 520.788C934.423 541.588 947.723 556.388 968.923 556.388Z" fill="#111111"/>
<path d="M1040.72 469.788H1060.62V485.588C1067.52 473.488 1081.02 466.388 1095.12 467.288C1115.42 467.288 1132.92 479.188 1132.92 506.288V571.988H1113.02V511.788C1113.02 492.588 1101.72 485.488 1089.22 485.488C1072.62 485.488 1060.12 495.788 1060.12 519.488V571.988H1040.82V469.788H1040.72Z" fill="#111111"/>
<path d="M1169.82 527.988C1169.82 545.788 1186.82 557.488 1205.12 557.488C1216.62 557.088 1227.32 551.488 1233.82 542.288L1248.92 553.488C1237.92 567.488 1220.62 575.288 1202.52 574.288C1169.42 574.288 1148.72 551.088 1148.72 520.688C1148.12 506.488 1153.62 492.588 1163.82 482.488C1174.02 472.288 1188.12 466.788 1202.72 467.088C1239.62 467.088 1253.72 494.588 1253.72 520.888V527.788L1169.82 527.988ZM1232.52 512.388C1232.02 495.388 1222.42 482.888 1202.32 482.888C1185.22 482.788 1170.92 495.688 1169.82 512.388H1232.52Z" fill="#111111"/>
<path fill-rule="evenodd" clip-rule="evenodd" d="M308.023 374.388C305.923 371.888 302.423 371.288 299.623 372.888L297.023 374.288L268.723 390.388L275.323 401.988L293.723 391.488L289.223 416.088L302.323 418.488L306.923 393.788L320.523 409.988L330.723 401.388L310.123 376.788H310.023L308.023 374.388ZM268.323 581.888C275.123 581.888 280.623 576.488 280.623 569.888C280.623 563.288 275.123 557.888 268.323 557.888C261.523 557.888 256.023 563.288 256.023 569.888C255.923 576.488 261.523 581.888 268.323 581.888ZM284.823 515.988L280.423 540.688L267.223 538.288L271.623 513.688L253.223 524.288L246.523 512.688L274.623 496.588L277.223 495.088C280.023 493.488 283.523 494.088 285.623 496.588L287.623 498.988L308.523 523.488L298.323 532.188L284.823 515.988ZM295.523 456.988L291.123 481.688L277.923 479.288L282.323 454.788L264.023 465.288L257.423 453.688L285.423 437.688V437.488H285.623L288.223 435.988C291.023 434.388 294.523 434.988 296.623 437.488L298.623 439.788L319.423 464.388L309.223 473.088L295.523 456.988ZM209.223 554.588H209.123L206.423 553.788C203.523 552.988 201.623 550.188 201.823 547.188L204.223 513.788L216.923 514.688L215.423 534.988L235.123 521.588L242.223 532.088L222.923 545.188L242.623 550.888L239.123 563.088L209.223 554.588ZM339.923 568.388L339.023 571.288C338.123 574.088 335.523 575.988 332.523 575.788L329.723 575.588L329.523 575.688L329.423 575.588L298.423 573.488L299.223 560.788L319.823 562.188L306.323 543.288L316.623 535.888L330.423 555.288L336.423 535.688L348.523 539.388L339.923 568.388ZM376.323 499.588L377.823 502.288C379.323 504.988 378.723 508.388 376.323 510.388L374.123 512.288V512.388H374.023L349.923 532.788L341.523 522.888L357.323 509.488L333.623 505.288L335.923 492.488L359.823 496.688L349.823 478.688L361.123 472.388L376.323 499.588ZM351.823 443.788L330.423 455.288L324.223 443.888L345.323 432.588L326.023 424.688L330.923 412.688L360.323 424.588L360.423 424.488L360.523 424.688L363.223 425.788C366.123 426.988 367.723 429.988 367.223 432.988L366.723 435.988L361.223 466.488L348.423 464.188L351.823 443.788ZM208.223 470.588L232.023 474.588L229.823 487.388L205.823 483.288L216.023 501.288L204.723 507.688L189.323 480.588L187.823 477.988C186.323 475.288 186.923 471.888 189.223 469.888L191.423 467.988V467.888H191.523L215.323 447.388L223.823 457.288L208.223 470.588ZM244.123 415.188L259.923 432.788L250.223 441.488L234.023 423.488L230.323 443.988L217.523 441.688L223.123 411.288L223.723 408.188C224.223 405.188 226.823 402.988 229.823 402.888L232.623 402.788L232.723 402.688L232.823 402.788L264.623 401.488L265.123 414.488L244.123 415.188Z" fill="#111111"/>
<path d="M689.239 658H686.068C685.881 657.088 685.553 656.287 685.084 655.597C684.624 654.906 684.061 654.327 683.396 653.858C682.74 653.381 682.011 653.023 681.21 652.784C680.409 652.545 679.574 652.426 678.705 652.426C677.119 652.426 675.683 652.827 674.396 653.628C673.118 654.429 672.099 655.609 671.341 657.169C670.591 658.729 670.216 660.642 670.216 662.909C670.216 665.176 670.591 667.089 671.341 668.649C672.099 670.209 673.118 671.389 674.396 672.19C675.683 672.991 677.119 673.392 678.705 673.392C679.574 673.392 680.409 673.273 681.21 673.034C682.011 672.795 682.74 672.442 683.396 671.973C684.061 671.496 684.624 670.912 685.084 670.222C685.553 669.523 685.881 668.722 686.068 667.818H689.239C689 669.156 688.565 670.354 687.935 671.411C687.304 672.467 686.52 673.366 685.582 674.108C684.645 674.841 683.592 675.399 682.425 675.783C681.266 676.166 680.026 676.358 678.705 676.358C676.472 676.358 674.486 675.812 672.747 674.722C671.009 673.631 669.641 672.08 668.643 670.068C667.646 668.057 667.148 665.67 667.148 662.909C667.148 660.148 667.646 657.761 668.643 655.75C669.641 653.739 671.009 652.188 672.747 651.097C674.486 650.006 676.472 649.46 678.705 649.46C680.026 649.46 681.266 649.652 682.425 650.036C683.592 650.419 684.645 650.982 685.582 651.723C686.52 652.456 687.304 653.351 687.935 654.408C688.565 655.456 689 656.653 689.239 658ZM700.85 676.409C699.077 676.409 697.522 675.987 696.184 675.143C694.854 674.3 693.815 673.119 693.065 671.602C692.323 670.085 691.952 668.312 691.952 666.284C691.952 664.239 692.323 662.453 693.065 660.928C693.815 659.402 694.854 658.217 696.184 657.374C697.522 656.53 699.077 656.108 700.85 656.108C702.623 656.108 704.174 656.53 705.503 657.374C706.842 658.217 707.881 659.402 708.623 660.928C709.373 662.453 709.748 664.239 709.748 666.284C709.748 668.312 709.373 670.085 708.623 671.602C707.881 673.119 706.842 674.3 705.503 675.143C704.174 675.987 702.623 676.409 700.85 676.409ZM700.85 673.699C702.197 673.699 703.305 673.354 704.174 672.663C705.043 671.973 705.687 671.065 706.104 669.94C706.522 668.815 706.731 667.597 706.731 666.284C706.731 664.972 706.522 663.749 706.104 662.615C705.687 661.482 705.043 660.565 704.174 659.866C703.305 659.168 702.197 658.818 700.85 658.818C699.503 658.818 698.395 659.168 697.526 659.866C696.657 660.565 696.013 661.482 695.596 662.615C695.178 663.749 694.969 664.972 694.969 666.284C694.969 667.597 695.178 668.815 695.596 669.94C696.013 671.065 696.657 671.973 697.526 672.663C698.395 673.354 699.503 673.699 700.85 673.699ZM713.273 676V656.364H716.188V659.432H716.444C716.853 658.384 717.513 657.57 718.425 656.99C719.337 656.402 720.432 656.108 721.711 656.108C723.006 656.108 724.084 656.402 724.945 656.99C725.814 657.57 726.492 658.384 726.978 659.432H727.182C727.685 658.418 728.439 657.612 729.445 657.016C730.451 656.411 731.657 656.108 733.063 656.108C734.819 656.108 736.255 656.658 737.371 657.757C738.488 658.848 739.046 660.548 739.046 662.858V676H736.029V662.858C736.029 661.409 735.633 660.374 734.84 659.751C734.047 659.129 733.114 658.818 732.04 658.818C730.66 658.818 729.59 659.236 728.831 660.071C728.073 660.898 727.694 661.946 727.694 663.216V676H724.626V662.551C724.626 661.435 724.263 660.536 723.539 659.854C722.814 659.163 721.881 658.818 720.739 658.818C719.955 658.818 719.222 659.027 718.54 659.445C717.867 659.862 717.322 660.442 716.904 661.183C716.495 661.916 716.29 662.764 716.29 663.727V676H713.273ZM743.482 676V656.364H746.499V676H743.482ZM745.016 653.091C744.428 653.091 743.921 652.891 743.495 652.49C743.077 652.089 742.869 651.608 742.869 651.045C742.869 650.483 743.077 650.001 743.495 649.601C743.921 649.2 744.428 649 745.016 649C745.604 649 746.107 649.2 746.525 649.601C746.951 650.001 747.164 650.483 747.164 651.045C747.164 651.608 746.951 652.089 746.525 652.49C746.107 652.891 745.604 653.091 745.016 653.091ZM753.962 664.188V676H750.945V656.364H753.86V659.432H754.116C754.576 658.435 755.275 657.634 756.212 657.028C757.15 656.415 758.36 656.108 759.843 656.108C761.173 656.108 762.336 656.381 763.333 656.926C764.33 657.463 765.106 658.281 765.66 659.381C766.214 660.472 766.491 661.852 766.491 663.523V676H763.474V663.727C763.474 662.185 763.073 660.983 762.272 660.122C761.471 659.253 760.371 658.818 758.974 658.818C758.011 658.818 757.15 659.027 756.391 659.445C755.641 659.862 755.049 660.472 754.614 661.273C754.18 662.074 753.962 663.045 753.962 664.188ZM778.85 683.773C777.393 683.773 776.14 683.585 775.091 683.21C774.043 682.844 773.17 682.358 772.471 681.753C771.78 681.156 771.231 680.517 770.822 679.835L773.225 678.148C773.498 678.506 773.843 678.915 774.261 679.375C774.678 679.844 775.249 680.249 775.974 680.589C776.707 680.939 777.665 681.114 778.85 681.114C780.435 681.114 781.743 680.73 782.775 679.963C783.806 679.196 784.322 677.994 784.322 676.358V672.369H784.066C783.844 672.727 783.529 673.17 783.12 673.699C782.719 674.219 782.14 674.683 781.381 675.092C780.631 675.493 779.617 675.693 778.339 675.693C776.753 675.693 775.33 675.318 774.069 674.568C772.816 673.818 771.823 672.727 771.09 671.295C770.366 669.864 770.003 668.125 770.003 666.08C770.003 664.068 770.357 662.317 771.064 660.825C771.772 659.325 772.756 658.166 774.018 657.348C775.279 656.521 776.736 656.108 778.39 656.108C779.668 656.108 780.682 656.321 781.432 656.747C782.191 657.165 782.77 657.642 783.171 658.179C783.58 658.707 783.895 659.142 784.117 659.483H784.424V656.364H787.339V676.562C787.339 678.25 786.955 679.622 786.188 680.679C785.43 681.744 784.407 682.524 783.12 683.018C781.841 683.521 780.418 683.773 778.85 683.773ZM778.748 672.983C779.958 672.983 780.981 672.706 781.816 672.152C782.651 671.598 783.286 670.801 783.721 669.761C784.155 668.722 784.373 667.477 784.373 666.028C784.373 664.614 784.16 663.365 783.734 662.283C783.307 661.2 782.677 660.352 781.841 659.739C781.006 659.125 779.975 658.818 778.748 658.818C777.469 658.818 776.404 659.142 775.552 659.79C774.708 660.437 774.073 661.307 773.647 662.398C773.229 663.489 773.02 664.699 773.02 666.028C773.02 667.392 773.234 668.598 773.66 669.646C774.094 670.686 774.734 671.504 775.577 672.101C776.43 672.689 777.486 672.983 778.748 672.983ZM815.554 656.364C815.4 655.068 814.778 654.062 813.687 653.347C812.596 652.631 811.258 652.273 809.673 652.273C808.514 652.273 807.5 652.46 806.63 652.835C805.77 653.21 805.096 653.726 804.61 654.382C804.133 655.038 803.895 655.784 803.895 656.619C803.895 657.318 804.061 657.919 804.393 658.422C804.734 658.916 805.169 659.33 805.697 659.662C806.226 659.986 806.779 660.254 807.359 660.467C807.939 660.672 808.471 660.838 808.957 660.966L811.616 661.682C812.298 661.861 813.056 662.108 813.892 662.423C814.735 662.739 815.541 663.169 816.308 663.714C817.083 664.251 817.723 664.942 818.226 665.786C818.728 666.629 818.98 667.665 818.98 668.892C818.98 670.307 818.609 671.585 817.868 672.727C817.135 673.869 816.061 674.777 814.646 675.45C813.24 676.124 811.531 676.46 809.52 676.46C807.645 676.46 806.021 676.158 804.649 675.553C803.285 674.947 802.211 674.104 801.427 673.021C800.652 671.939 800.213 670.682 800.11 669.25H803.383C803.468 670.239 803.801 671.057 804.38 671.705C804.968 672.344 805.71 672.821 806.605 673.136C807.508 673.443 808.48 673.597 809.52 673.597C810.73 673.597 811.816 673.401 812.779 673.009C813.743 672.608 814.505 672.054 815.068 671.347C815.63 670.631 815.912 669.795 815.912 668.841C815.912 667.972 815.669 667.264 815.183 666.719C814.697 666.173 814.058 665.73 813.265 665.389C812.473 665.048 811.616 664.75 810.696 664.494L807.474 663.574C805.429 662.986 803.809 662.146 802.616 661.055C801.423 659.964 800.826 658.537 800.826 656.773C800.826 655.307 801.223 654.028 802.015 652.938C802.816 651.838 803.89 650.986 805.237 650.381C806.592 649.767 808.105 649.46 809.775 649.46C811.463 649.46 812.963 649.763 814.275 650.368C815.588 650.964 816.628 651.783 817.395 652.822C818.17 653.862 818.579 655.043 818.622 656.364H815.554ZM830.681 676.409C828.908 676.409 827.353 675.987 826.014 675.143C824.685 674.3 823.645 673.119 822.895 671.602C822.154 670.085 821.783 668.312 821.783 666.284C821.783 664.239 822.154 662.453 822.895 660.928C823.645 659.402 824.685 658.217 826.014 657.374C827.353 656.53 828.908 656.108 830.681 656.108C832.453 656.108 834.005 656.53 835.334 657.374C836.672 658.217 837.712 659.402 838.453 660.928C839.203 662.453 839.578 664.239 839.578 666.284C839.578 668.312 839.203 670.085 838.453 671.602C837.712 673.119 836.672 674.3 835.334 675.143C834.005 675.987 832.453 676.409 830.681 676.409ZM830.681 673.699C832.027 673.699 833.135 673.354 834.005 672.663C834.874 671.973 835.517 671.065 835.935 669.94C836.353 668.815 836.561 667.597 836.561 666.284C836.561 664.972 836.353 663.749 835.935 662.615C835.517 661.482 834.874 660.565 834.005 659.866C833.135 659.168 832.027 658.818 830.681 658.818C829.334 658.818 828.226 659.168 827.357 659.866C826.487 660.565 825.844 661.482 825.426 662.615C825.009 663.749 824.8 664.972 824.8 666.284C824.8 667.597 825.009 668.815 825.426 669.94C825.844 671.065 826.487 671.973 827.357 672.663C828.226 673.354 829.334 673.699 830.681 673.699ZM851.081 676.409C849.308 676.409 847.753 675.987 846.415 675.143C845.085 674.3 844.046 673.119 843.296 671.602C842.554 670.085 842.183 668.312 842.183 666.284C842.183 664.239 842.554 662.453 843.296 660.928C844.046 659.402 845.085 658.217 846.415 657.374C847.753 656.53 849.308 656.108 851.081 656.108C852.854 656.108 854.405 656.53 855.735 657.374C857.073 658.217 858.112 659.402 858.854 660.928C859.604 662.453 859.979 664.239 859.979 666.284C859.979 668.312 859.604 670.085 858.854 671.602C858.112 673.119 857.073 674.3 855.735 675.143C854.405 675.987 852.854 676.409 851.081 676.409ZM851.081 673.699C852.428 673.699 853.536 673.354 854.405 672.663C855.274 671.973 855.918 671.065 856.335 669.94C856.753 668.815 856.962 667.597 856.962 666.284C856.962 664.972 856.753 663.749 856.335 662.615C855.918 661.482 855.274 660.565 854.405 659.866C853.536 659.168 852.428 658.818 851.081 658.818C849.735 658.818 848.627 659.168 847.757 659.866C846.888 660.565 846.244 661.482 845.827 662.615C845.409 663.749 845.2 664.972 845.2 666.284C845.2 667.597 845.409 668.815 845.827 669.94C846.244 671.065 846.888 671.973 847.757 672.663C848.627 673.354 849.735 673.699 851.081 673.699ZM866.521 664.188V676H863.504V656.364H866.419V659.432H866.675C867.135 658.435 867.834 657.634 868.771 657.028C869.709 656.415 870.919 656.108 872.402 656.108C873.732 656.108 874.895 656.381 875.892 656.926C876.889 657.463 877.665 658.281 878.219 659.381C878.773 660.472 879.05 661.852 879.05 663.523V676H876.033V663.727C876.033 662.185 875.632 660.983 874.831 660.122C874.03 659.253 872.93 658.818 871.533 658.818C870.57 658.818 869.709 659.027 868.95 659.445C868.2 659.862 867.608 660.472 867.173 661.273C866.739 662.074 866.521 663.045 866.521 664.188Z" fill="#111111" fill-opacity="0.48"/>
<defs>
<radialGradient id="paint0_radial_92_80" cx="0" cy="0" r="1" gradientUnits="userSpaceOnUse" gradientTransform="translate(720 512) rotate(90) scale(512 720)">
<stop stop-color="white"/>
<stop offset="1" stop-color="#FFC671"/>
</radialGradient>
</defs>
</svg>
